<svg xmlns="http://www.w3.org/2000/svg" viewBox="0 0 256 192" fill="none" aria-hidden="true" focusable="false">
  <defs>
    <linearGradient id="a" x1="49" y1="71" x2="149" y2="151" gradientUnits="userSpaceOnUse"><stop stop-color="#2EAA82"/><stop offset="1" stop-color="#07362A"/></linearGradient>
    <linearGradient id="b" x1="145" y1="45" x2="210" y2="154" gradientUnits="userSpaceOnUse"><stop stop-color="#F8F0E2"/><stop offset="1" stop-color="#C7B18A"/></linearGradient>
    <linearGradient id="c" x1="159" y1="65" x2="196" y2="137" gradientUnits="userSpaceOnUse"><stop stop-color="#DDBB73"/><stop offset="1" stop-color="#996A22"/></linearGradient>
    <filter id="s" x="31" y="25" width="198" height="154" filterUnits="userSpaceOnUse"><feDropShadow dy="7" stdDeviation="5" flood-color="#123B30" flood-opacity=".2"/></filter>
  </defs>
  <ellipse cx="127" cy="163" rx="94" ry="12" fill="#163F34" opacity=".12"/>
  <g filter="url(#s)">
    <path d="m47 86 62-32 57 29-63 34-56-31Z" fill="#64C5A6"/>
    <path d="m47 86 56 31v45l-56-31V86Z" fill="url(#a)"/>
    <path d="m103 117 63-34v45l-63 34v-45Z" fill="#0A4A38"/>
    <path d="m59 99 31 17v9l-31-17v-9Zm0 19 31 17v9l-31-17v-9Z" fill="#9BDAC6" opacity=".72"/>
    <circle cx="96" cy="112" r="4" fill="#D8B56A"/><circle cx="96" cy="131" r="4" fill="#D8B56A"/>
    <path d="M177 37c11 11 25 16 41 18v37c0 31-17 52-41 65-25-13-42-34-42-65V55c17-2 31-7 42-18Z" fill="url(#b)"/>
    <path d="M177 50c9 8 19 12 30 14v28c0 22-11 38-30 49-19-11-30-27-30-49V64c11-2 21-6 30-14Z" fill="url(#c)"/>
    <path d="M161 91a18 18 0 1 1 4 12" stroke="#F9F3E8" stroke-width="7" stroke-linecap="round"/>
    <path d="m158 107 7-4 2 8" stroke="#F9F3E8" stroke-width="6" stroke-linecap="round" stroke-linejoin="round"/>
  </g>
</svg>
