<svg xmlns="http://www.w3.org/2000/svg" viewBox="0 0 240 160" fill="none" aria-hidden="true" focusable="false">
  <g stroke="#EAD6A7" stroke-width="2">
    <path d="m142 8 18 18 18-18 18 18 18-18 18 18"/>
    <path d="m118 32 18 18 18-18 18 18 18-18 18 18 18-18"/>
    <path d="m94 56 18 18 18-18 18 18 18-18 18 18 18-18 18 18"/>
    <path d="m70 80 18 18 18-18 18 18 18-18 18 18 18-18 18 18 18-18"/>
  </g>
  <path d="m184 58 8 16 16 8-16 8-8 16-8-16-16-8 16-8 8-16Z" fill="#C5963D"/>
  <path d="M211 105c0-14 11-25 25-25v50c-14 0-25-11-25-25Z" fill="#16856A"/>
</svg>
