<svg xmlns="http://www.w3.org/2000/svg" viewBox="0 0 256 192" fill="none" aria-hidden="true" focusable="false">
  <defs>
    <linearGradient id="a" x1="55" y1="111" x2="132" y2="175" gradientUnits="userSpaceOnUse"><stop stop-color="#F9F2E6"/><stop offset="1" stop-color="#D6C3A3"/></linearGradient>
    <linearGradient id="b" x1="78" y1="78" x2="100" y2="144" gradientUnits="userSpaceOnUse"><stop stop-color="#43B38F"/><stop offset="1" stop-color="#0A4937"/></linearGradient>
    <linearGradient id="c" x1="122" y1="50" x2="145" y2="135" gradientUnits="userSpaceOnUse"><stop stop-color="#E0BE76"/><stop offset="1" stop-color="#9A6D24"/></linearGradient>
    <filter id="s" x="32" y="26" width="194" height="153" filterUnits="userSpaceOnUse"><feDropShadow dy="6" stdDeviation="5" flood-color="#123B30" flood-opacity=".18"/></filter>
  </defs>
  <ellipse cx="129" cy="162" rx="94" ry="12" fill="#163F34" opacity=".12"/>
  <g filter="url(#s)">
    <path d="m44 127 78-41 91 42-82 44-87-45Z" fill="url(#a)"/>
    <path d="m44 127 87 45v9l-87-45v-9Z" fill="#BDAA8B"/>
    <path d="m131 172 82-44v9l-82 44v-9Z" fill="#947F60"/>
    <path d="m65 111 23-12 19 10-23 12-19-10Z" fill="#60C2A2"/>
    <path d="m65 111 19 10v30l-19-10v-30Z" fill="#0E5C45"/>
    <path d="m84 121 23-12v30l-23 12v-30Z" fill="url(#b)"/>
    <path d="m106 83 25-13 20 10-25 14-20-11Z" fill="#E5C985"/>
    <path d="m106 83 20 11v49l-20-11V83Z" fill="#A47627"/>
    <path d="m126 94 25-14v49l-25 14V94Z" fill="url(#c)"/>
    <path d="m152 58 25-13 20 10-25 14-20-11Z" fill="#46B892"/>
    <path d="m152 58 20 11v65l-20-10V58Z" fill="#0B4C3A"/>
    <path d="m172 69 25-14v66l-25 13V69Z" fill="#167558"/>
    <path d="m70 91 36-35 26 9 42-36" stroke="#B88935" stroke-width="5" stroke-linecap="round" stroke-linejoin="round"/>
    <circle cx="70" cy="91" r="6" fill="#F4E7CE" stroke="#B88935" stroke-width="4"/>
    <circle cx="106" cy="56" r="6" fill="#F4E7CE" stroke="#B88935" stroke-width="4"/>
    <circle cx="132" cy="65" r="6" fill="#F4E7CE" stroke="#B88935" stroke-width="4"/>
    <path d="m166 28 16-4-5 16" stroke="#B88935" stroke-width="5" stroke-linecap="round" stroke-linejoin="round"/>
  </g>
</svg>
